<?xml version="1.0" encoding="UTF-8" standalone="no"?>
<!-- Created with Inkscape (http://www.inkscape.org/) -->

<svg
   xmlns:dc="http://purl.org/dc/elements/1.1/"
   xmlns:cc="http://creativecommons.org/ns#"
   xmlns:rdf="http://www.w3.org/1999/02/22-rdf-syntax-ns#"
   xmlns:svg="http://www.w3.org/2000/svg"
   xmlns="http://www.w3.org/2000/svg"
   xmlns:sodipodi="http://sodipodi.sourceforge.net/DTD/sodipodi-0.dtd"
   xmlns:inkscape="http://www.inkscape.org/namespaces/inkscape"
   width="1920"
   height="110"
   viewBox="0 0 507.99999 29.104167"
   version="1.1"
   id="svg8"
   inkscape:version="0.92.3 (3ce5693, 2018-03-11)"
   sodipodi:docname="waves.svg">
  <title
     id="title66">Waves</title>
  <defs
     id="defs2">
    <inkscape:path-effect
       effect="spiro"
       id="path-effect28"
       is_visible="true" />
    <inkscape:path-effect
       effect="spiro"
       id="path-effect24"
       is_visible="true" />
    <inkscape:path-effect
       effect="spiro"
       id="path-effect20"
       is_visible="true" />
    <filter
       inkscape:collect="always"
       style="color-interpolation-filters:sRGB"
       id="filter4767"
       x="-0.41536712"
       width="1.8307342"
       y="-4.8823028"
       height="10.764606">
      <feGaussianBlur
         inkscape:collect="always"
         stdDeviation="151.91871"
         id="feGaussianBlur4769" />
    </filter>
  </defs>
  <sodipodi:namedview
     id="base"
     pagecolor="#ffffff"
     bordercolor="#666666"
     borderopacity="1.0"
     inkscape:pageopacity="0.0"
     inkscape:pageshadow="2"
     inkscape:zoom="20.48"
     inkscape:cx="12.849935"
     inkscape:cy="69.596414"
     inkscape:document-units="px"
     inkscape:current-layer="layer1"
     showgrid="false"
     units="px"
     showborder="true"
     inkscape:window-width="1853"
     inkscape:window-height="1025"
     inkscape:window-x="67"
     inkscape:window-y="27"
     inkscape:window-maximized="1"
     inkscape:showpageshadow="false"
     borderlayer="false" />
  <metadata
     id="metadata5">
    <rdf:RDF>
      <cc:Work
         rdf:about="">
        <dc:format>image/svg+xml</dc:format>
        <dc:type
           rdf:resource="http://purl.org/dc/dcmitype/StillImage" />
        <dc:title>Waves</dc:title>
        <dc:creator>
          <cc:Agent>
            <dc:title>Paweł Zadrożny</dc:title>
          </cc:Agent>
        </dc:creator>
        <dc:publisher>
          <cc:Agent>
            <dc:title>Dorota Durlej</dc:title>
          </cc:Agent>
        </dc:publisher>
        <dc:contributor>
          <cc:Agent>
            <dc:title>Dorota Durlej</dc:title>
          </cc:Agent>
        </dc:contributor>
      </cc:Work>
    </rdf:RDF>
  </metadata>
  <g
     inkscape:label="Layer 1"
     inkscape:groupmode="layer"
     id="layer1"
     transform="translate(0,-267.89581)"
     style="display:inline">
    <path
       style="fill:#00acc6;fill-opacity:0;stroke-width:0.04882812"
       d="m 1918.2711,107.3942 c -8.2962,-2.9056 -22.0099,-7.502673 -32.2998,-10.827459 -15.5355,-5.019663 -32.1786,-10.104361 -47.7295,-14.582012 -0.9937,-0.286107 -1.955,-0.563598 -2.1363,-0.616647 l -0.3295,-0.09645 V 61.254166 41.236702 h 42.1386 42.1387 v 33.374024 c 0,26.669094 -0.012,33.373114 -0.061,33.369474 -0.034,-0.002 -0.8081,-0.2662 -1.7212,-0.586 z"
       id="path4579"
       inkscape:connector-curvature="0"
       transform="matrix(0.26458333,0,0,0.26458333,0,267.89581)" />
    <path
       style="fill:#00acc6;fill-opacity:0;stroke-width:0.78125;fill-rule:nonzero"
       d="M 449.70414,82.119519 C 330.93625,78.213382 218.81407,66.018529 104.60712,44.585394 93.101885,42.426215 82.633824,40.384729 81.344762,40.048759 c -2.204998,-0.574692 -2.112496,-0.639821 1.5625,-1.100144 2.148437,-0.26911 10.9375,-1.543971 19.531248,-2.833025 185.47441,-27.8209941 384.6271,-34.9768766 576.95313,-20.730872 89.67824,6.642661 193.91844,20.04005 277.34375,35.645377 l 5.07813,0.949901 -12.5,1.371319 c -139.90274,15.348093 -246.07972,23.9544 -346.09376,28.053058 -25.94775,1.06336 -128.41437,1.540696 -153.51562,0.715146 z"
       id="path4583"
       inkscape:connector-curvature="0"
       transform="matrix(0.26458333,0,0,0.26458333,0,267.89581)" />
    <path
       style="fill:#00acc6;fill-opacity:0;fill-rule:nonzero;stroke-width:0.78125"
       d="M 449.78226,82.05983 C 336.12672,78.669583 223.1634,66.517959 108.76664,45.376297 85.230101,41.026511 77.709536,39.380303 80.641637,39.219896 81.286168,39.184636 92.57147,37.583393 105.72009,35.661579 283.00223,9.7498535 466.68845,2.0183835 643.92289,13.00828 c 87.4171,5.420531 171.41069,14.726131 257.26875,28.502648 34.07031,5.466816 61.49789,10.49899 58.74688,10.778366 -1.28907,0.13091 -18.86719,1.967561 -39.0625,4.081446 -155.6638,16.293646 -245.11464,22.981854 -344.53126,25.760486 -31.05229,0.867891 -96.30766,0.83108 -126.5625,-0.0714 z"
       id="path4585"
       inkscape:connector-curvature="0"
       transform="matrix(0.26458333,0,0,0.26458333,0,267.89581)" />
    <path
       style="fill:#00acc6;fill-opacity:0;fill-rule:nonzero;stroke-width:0.78125"
       d="M 449.78226,82.05983 C 336.12672,78.669583 223.1634,66.517959 108.76664,45.376297 85.230101,41.026511 77.709536,39.380303 80.641637,39.219896 81.286168,39.184636 92.57147,37.583393 105.72009,35.661579 283.00223,9.7498535 466.68845,2.0183835 643.92289,13.00828 c 87.4171,5.420531 171.41069,14.726131 257.26875,28.502648 34.07031,5.466816 61.49789,10.49899 58.74688,10.778366 -1.28907,0.13091 -18.86719,1.967561 -39.0625,4.081446 -155.6638,16.293646 -245.11464,22.981854 -344.53126,25.760486 -31.05229,0.867891 -96.30766,0.83108 -126.5625,-0.0714 z"
       id="path4587"
       inkscape:connector-curvature="0"
       transform="matrix(0.26458333,0,0,0.26458333,0,267.89581)" />
    <path
       style="fill:#00acc6;fill-opacity:0;fill-rule:nonzero;stroke-width:0.78125"
       d="M 449.78226,82.05983 C 336.12672,78.669583 223.1634,66.517959 108.76664,45.376297 85.230101,41.026511 77.709536,39.380303 80.641637,39.219896 81.286168,39.184636 92.57147,37.583393 105.72009,35.661579 283.00223,9.7498535 466.68845,2.0183835 643.92289,13.00828 c 87.4171,5.420531 171.41069,14.726131 257.26875,28.502648 34.07031,5.466816 61.49789,10.49899 58.74688,10.778366 -1.28907,0.13091 -18.86719,1.967561 -39.0625,4.081446 -155.6638,16.293646 -245.11464,22.981854 -344.53126,25.760486 -31.05229,0.867891 -96.30766,0.83108 -126.5625,-0.0714 z"
       id="path4589"
       inkscape:connector-curvature="0"
       transform="matrix(0.26458333,0,0,0.26458333,0,267.89581)" />
    <path
       style="fill:#00acc6;fill-opacity:0;fill-rule:nonzero;stroke-width:0.78125"
       d="M 449.78226,82.05983 C 336.12672,78.669583 223.1634,66.517959 108.76664,45.376297 85.230101,41.026511 77.709536,39.380303 80.641637,39.219896 81.286168,39.184636 92.57147,37.583393 105.72009,35.661579 283.00223,9.7498535 466.68845,2.0183835 643.92289,13.00828 c 87.4171,5.420531 171.41069,14.726131 257.26875,28.502648 34.07031,5.466816 61.49789,10.49899 58.74688,10.778366 -1.28907,0.13091 -18.86719,1.967561 -39.0625,4.081446 -155.6638,16.293646 -245.11464,22.981854 -344.53126,25.760486 -31.05229,0.867891 -96.30766,0.83108 -126.5625,-0.0714 z"
       id="path4591"
       inkscape:connector-curvature="0"
       transform="matrix(0.26458333,0,0,0.26458333,0,267.89581)" />
    <path
       style="fill:#00acc6;fill-opacity:0;fill-rule:nonzero;stroke-width:0.78125"
       d="M 449.78226,82.05983 C 336.12672,78.669583 223.1634,66.517959 108.76664,45.376297 85.230101,41.026511 77.709536,39.380303 80.641637,39.219896 81.286168,39.184636 92.57147,37.583393 105.72009,35.661579 283.00223,9.7498535 466.68845,2.0183835 643.92289,13.00828 c 87.4171,5.420531 171.41069,14.726131 257.26875,28.502648 34.07031,5.466816 61.49789,10.49899 58.74688,10.778366 -1.28907,0.13091 -18.86719,1.967561 -39.0625,4.081446 -155.6638,16.293646 -245.11464,22.981854 -344.53126,25.760486 -31.05229,0.867891 -96.30766,0.83108 -126.5625,-0.0714 z"
       id="path4593"
       inkscape:connector-curvature="0"
       transform="matrix(0.26458333,0,0,0.26458333,0,267.89581)" />
    <path
       style="fill:#00acc6;fill-opacity:0;fill-rule:nonzero;stroke-width:0.78125"
       d="M 1897.1684,99.961955 C 1835.369,79.412019 1773.6256,63.134118 1708.4861,50.218199 l -22.2761,-4.416923 27.3542,-0.04151 c 34.8481,-0.05288 60.3495,-2.093185 92.6899,-7.415886 34.129,-5.617094 75.1666,-16.499607 104.8485,-27.804195 3.7966,-1.4459716 7.2244,-2.6290396 7.6172,-2.6290396 0.424,0 0.7142,20.1604996 0.7142,49.6093756 0,27.285156 -0.2636,49.574899 -0.5859,49.532779 -0.3223,-0.0421 -10.0781,-3.23302 -21.6797,-7.09085 z"
       id="path4595"
       inkscape:connector-curvature="0"
       transform="matrix(0.26458333,0,0,0.26458333,0,267.89581)" />
    <path
       style="fill:#00acc6;fill-opacity:0;fill-rule:nonzero;stroke-width:0.78125"
       d="M 1897.1684,99.961955 C 1835.369,79.412019 1773.6256,63.134118 1708.4861,50.218199 l -22.2761,-4.416923 27.3542,-0.04151 c 34.8481,-0.05288 60.3495,-2.093185 92.6899,-7.415886 34.129,-5.617094 75.1666,-16.499607 104.8485,-27.804195 3.7966,-1.4459716 7.2244,-2.6290396 7.6172,-2.6290396 0.424,0 0.7142,20.1604996 0.7142,49.6093756 0,27.285156 -0.2636,49.574899 -0.5859,49.532779 -0.3223,-0.0421 -10.0781,-3.23302 -21.6797,-7.09085 z"
       id="path4597"
       inkscape:connector-curvature="0"
       transform="matrix(0.26458333,0,0,0.26458333,0,267.89581)" />
    <rect
       style="fill:#00acc6;fill-opacity:0;fill-rule:nonzero;stroke-width:0.26458332"
       id="rect4599"
       width="516.55762"
       height="35.760101"
       x="0"
       y="267.64777" />
    <path
       style="fill:#00acc6;fill-opacity:0;fill-rule:nonzero;stroke-width:0.78125"
       d="M 482.36797,82.769981 C 363.07974,81.161845 237.0413,68.784347 117.52422,46.94081 81.86163,40.422938 79.486538,39.910923 81.977342,39.277724 83.051561,39.004641 93.598436,37.383664 105.41484,35.67555 201.55073,21.778691 284.40269,14.2016 388.22734,9.8114004 420.07168,8.4648703 513.32156,7.9968472 550.33672,8.9977699 677.85698,12.446031 795.37832,23.740466 917.91484,44.324011 c 17.83204,2.995404 34.70704,5.900142 37.50001,6.454973 7.25984,1.442181 12.48906,0.760867 -75.78126,9.873462 -96.78841,9.991961 -182.94095,16.653267 -257.42187,19.903836 -28.88456,1.260607 -100.30674,2.82125 -116.79688,2.552124 -5.37109,-0.08766 -15.74218,-0.23995 -23.04687,-0.338425 z"
       id="path4601"
       inkscape:connector-curvature="0"
       transform="matrix(0.26458333,0,0,0.26458333,0,267.89581)" />
    <path
       style="fill:#00acc6;fill-opacity:0;fill-rule:nonzero;stroke-width:0.78125"
       d="M 482.36797,82.769981 C 363.07974,81.161845 237.0413,68.784347 117.52422,46.94081 81.86163,40.422938 79.486538,39.910923 81.977342,39.277724 83.051561,39.004641 93.598436,37.383664 105.41484,35.67555 201.55073,21.778691 284.40269,14.2016 388.22734,9.8114004 420.07168,8.4648703 513.32156,7.9968472 550.33672,8.9977699 677.85698,12.446031 795.37832,23.740466 917.91484,44.324011 c 17.83204,2.995404 34.70704,5.900142 37.50001,6.454973 7.25984,1.442181 12.48906,0.760867 -75.78126,9.873462 -96.78841,9.991961 -182.94095,16.653267 -257.42187,19.903836 -28.88456,1.260607 -100.30674,2.82125 -116.79688,2.552124 -5.37109,-0.08766 -15.74218,-0.23995 -23.04687,-0.338425 z"
       id="path4603"
       inkscape:connector-curvature="0"
       transform="matrix(0.26458333,0,0,0.26458333,0,267.89581)" />
    <path
       style="fill:#00acc6;fill-opacity:0;fill-rule:nonzero;stroke-width:0.78125"
       d="M 482.36797,82.769981 C 363.07974,81.161845 237.0413,68.784347 117.52422,46.94081 81.86163,40.422938 79.486538,39.910923 81.977342,39.277724 83.051561,39.004641 93.598436,37.383664 105.41484,35.67555 201.55073,21.778691 284.40269,14.2016 388.22734,9.8114004 420.07168,8.4648703 513.32156,7.9968472 550.33672,8.9977699 677.85698,12.446031 795.37832,23.740466 917.91484,44.324011 c 17.83204,2.995404 34.70704,5.900142 37.50001,6.454973 7.25984,1.442181 12.48906,0.760867 -75.78126,9.873462 -96.78841,9.991961 -182.94095,16.653267 -257.42187,19.903836 -28.88456,1.260607 -100.30674,2.82125 -116.79688,2.552124 -5.37109,-0.08766 -15.74218,-0.23995 -23.04687,-0.338425 z"
       id="path4605"
       inkscape:connector-curvature="0"
       transform="matrix(0.26458333,0,0,0.26458333,0,267.89581)" />
    <path
       style="fill:#00acc6;fill-opacity:0;fill-rule:nonzero;stroke-width:0.78125"
       d="M 482.36797,82.769981 C 363.07974,81.161845 237.0413,68.784347 117.52422,46.94081 81.86163,40.422938 79.486538,39.910923 81.977342,39.277724 83.051561,39.004641 93.598436,37.383664 105.41484,35.67555 201.55073,21.778691 284.40269,14.2016 388.22734,9.8114004 420.07168,8.4648703 513.32156,7.9968472 550.33672,8.9977699 677.85698,12.446031 795.37832,23.740466 917.91484,44.324011 c 17.83204,2.995404 34.70704,5.900142 37.50001,6.454973 7.25984,1.442181 12.48906,0.760867 -75.78126,9.873462 -96.78841,9.991961 -182.94095,16.653267 -257.42187,19.903836 -28.88456,1.260607 -100.30674,2.82125 -116.79688,2.552124 -5.37109,-0.08766 -15.74218,-0.23995 -23.04687,-0.338425 z"
       id="path4607"
       inkscape:connector-curvature="0"
       transform="matrix(0.26458333,0,0,0.26458333,0,267.89581)" />
    <path
       style="fill:#00acc6;fill-opacity:0;fill-rule:nonzero;stroke-width:0.78125"
       d="M 482.36797,82.769981 C 363.07974,81.161845 237.0413,68.784347 117.52422,46.94081 81.86163,40.422938 79.486538,39.910923 81.977342,39.277724 83.051561,39.004641 93.598436,37.383664 105.41484,35.67555 201.55073,21.778691 284.40269,14.2016 388.22734,9.8114004 420.07168,8.4648703 513.32156,7.9968472 550.33672,8.9977699 677.85698,12.446031 795.37832,23.740466 917.91484,44.324011 c 17.83204,2.995404 34.70704,5.900142 37.50001,6.454973 7.25984,1.442181 12.48906,0.760867 -75.78126,9.873462 -96.78841,9.991961 -182.94095,16.653267 -257.42187,19.903836 -28.88456,1.260607 -100.30674,2.82125 -116.79688,2.552124 -5.37109,-0.08766 -15.74218,-0.23995 -23.04687,-0.338425 z"
       id="path4609"
       inkscape:connector-curvature="0"
       transform="matrix(0.26458333,0,0,0.26458333,0,267.89581)" />
    <path
       style="fill:#00acc6;fill-opacity:0;fill-rule:nonzero;stroke-width:0.78125"
       d="M 482.36797,82.769981 C 363.07974,81.161845 237.0413,68.784347 117.52422,46.94081 81.86163,40.422938 79.486538,39.910923 81.977342,39.277724 83.051561,39.004641 93.598436,37.383664 105.41484,35.67555 201.55073,21.778691 284.40269,14.2016 388.22734,9.8114004 420.07168,8.4648703 513.32156,7.9968472 550.33672,8.9977699 677.85698,12.446031 795.37832,23.740466 917.91484,44.324011 c 17.83204,2.995404 34.70704,5.900142 37.50001,6.454973 7.25984,1.442181 12.48906,0.760867 -75.78126,9.873462 -96.78841,9.991961 -182.94095,16.653267 -257.42187,19.903836 -28.88456,1.260607 -100.30674,2.82125 -116.79688,2.552124 -5.37109,-0.08766 -15.74218,-0.23995 -23.04687,-0.338425 z"
       id="path4611"
       inkscape:connector-curvature="0"
       transform="matrix(0.26458333,0,0,0.26458333,0,267.89581)" />
    <path
       style="fill:#00acc6;fill-opacity:0;fill-rule:nonzero;stroke-width:0.78125"
       d="M 482.36797,82.769981 C 363.07974,81.161845 237.0413,68.784347 117.52422,46.94081 81.86163,40.422938 79.486538,39.910923 81.977342,39.277724 83.051561,39.004641 93.598436,37.383664 105.41484,35.67555 201.55073,21.778691 284.40269,14.2016 388.22734,9.8114004 420.07168,8.4648703 513.32156,7.9968472 550.33672,8.9977699 677.85698,12.446031 795.37832,23.740466 917.91484,44.324011 c 17.83204,2.995404 34.70704,5.900142 37.50001,6.454973 7.25984,1.442181 12.48906,0.760867 -75.78126,9.873462 -96.78841,9.991961 -182.94095,16.653267 -257.42187,19.903836 -28.88456,1.260607 -100.30674,2.82125 -116.79688,2.552124 -5.37109,-0.08766 -15.74218,-0.23995 -23.04687,-0.338425 z"
       id="path4613"
       inkscape:connector-curvature="0"
       transform="matrix(0.26458333,0,0,0.26458333,0,267.89581)" />
    <path
       style="fill:#00acc6;fill-opacity:0;fill-rule:nonzero;stroke-width:0.78125"
       d="M 482.36797,82.769981 C 363.07974,81.161845 237.0413,68.784347 117.52422,46.94081 81.86163,40.422938 79.486538,39.910923 81.977342,39.277724 83.051561,39.004641 93.598436,37.383664 105.41484,35.67555 201.55073,21.778691 284.40269,14.2016 388.22734,9.8114004 420.07168,8.4648703 513.32156,7.9968472 550.33672,8.9977699 677.85698,12.446031 795.37832,23.740466 917.91484,44.324011 c 17.83204,2.995404 34.70704,5.900142 37.50001,6.454973 7.25984,1.442181 12.48906,0.760867 -75.78126,9.873462 -96.78841,9.991961 -182.94095,16.653267 -257.42187,19.903836 -28.88456,1.260607 -100.30674,2.82125 -116.79688,2.552124 -5.37109,-0.08766 -15.74218,-0.23995 -23.04687,-0.338425 z"
       id="path4615"
       inkscape:connector-curvature="0"
       transform="matrix(0.26458333,0,0,0.26458333,0,267.89581)" />
    <path
       style="fill:#00acc6;fill-opacity:0;fill-rule:nonzero;stroke-width:0.78125"
       d="M 482.36797,82.769981 C 363.07974,81.161845 237.0413,68.784347 117.52422,46.94081 81.86163,40.422938 79.486538,39.910923 81.977342,39.277724 83.051561,39.004641 93.598436,37.383664 105.41484,35.67555 201.55073,21.778691 284.40269,14.2016 388.22734,9.8114004 420.07168,8.4648703 513.32156,7.9968472 550.33672,8.9977699 677.85698,12.446031 795.37832,23.740466 917.91484,44.324011 c 17.83204,2.995404 34.70704,5.900142 37.50001,6.454973 7.25984,1.442181 12.48906,0.760867 -75.78126,9.873462 -96.78841,9.991961 -182.94095,16.653267 -257.42187,19.903836 -28.88456,1.260607 -100.30674,2.82125 -116.79688,2.552124 -5.37109,-0.08766 -15.74218,-0.23995 -23.04687,-0.338425 z"
       id="path4617"
       inkscape:connector-curvature="0"
       transform="matrix(0.26458333,0,0,0.26458333,0,267.89581)" />
    <path
       style="fill:#00acc6;fill-opacity:0;fill-rule:nonzero;stroke-width:0.78125"
       d="M 482.36797,82.769981 C 363.07974,81.161845 237.0413,68.784347 117.52422,46.94081 81.86163,40.422938 79.486538,39.910923 81.977342,39.277724 83.051561,39.004641 93.598436,37.383664 105.41484,35.67555 201.55073,21.778691 284.40269,14.2016 388.22734,9.8114004 420.07168,8.4648703 513.32156,7.9968472 550.33672,8.9977699 677.85698,12.446031 795.37832,23.740466 917.91484,44.324011 c 17.83204,2.995404 34.70704,5.900142 37.50001,6.454973 7.25984,1.442181 12.48906,0.760867 -75.78126,9.873462 -96.78841,9.991961 -182.94095,16.653267 -257.42187,19.903836 -28.88456,1.260607 -100.30674,2.82125 -116.79688,2.552124 -5.37109,-0.08766 -15.74218,-0.23995 -23.04687,-0.338425 z"
       id="path4619"
       inkscape:connector-curvature="0"
       transform="matrix(0.26458333,0,0,0.26458333,0,267.89581)" />
    <path
       style="fill:#00acc6;fill-opacity:0;fill-rule:nonzero;stroke-width:0.78125"
       d="M 482.36797,82.769981 C 363.07974,81.161845 237.0413,68.784347 117.52422,46.94081 81.86163,40.422938 79.486538,39.910923 81.977342,39.277724 83.051561,39.004641 93.598436,37.383664 105.41484,35.67555 201.55073,21.778691 284.40269,14.2016 388.22734,9.8114004 420.07168,8.4648703 513.32156,7.9968472 550.33672,8.9977699 677.85698,12.446031 795.37832,23.740466 917.91484,44.324011 c 17.83204,2.995404 34.70704,5.900142 37.50001,6.454973 7.25984,1.442181 12.48906,0.760867 -75.78126,9.873462 -96.78841,9.991961 -182.94095,16.653267 -257.42187,19.903836 -28.88456,1.260607 -100.30674,2.82125 -116.79688,2.552124 -5.37109,-0.08766 -15.74218,-0.23995 -23.04687,-0.338425 z"
       id="path4621"
       inkscape:connector-curvature="0"
       transform="matrix(0.26458333,0,0,0.26458333,0,267.89581)" />
    <path
       style="fill:#00acc6;fill-opacity:0;fill-rule:nonzero;stroke-width:0.78125"
       d="M 482.36797,82.769981 C 363.07974,81.161845 237.0413,68.784347 117.52422,46.94081 81.86163,40.422938 79.486538,39.910923 81.977342,39.277724 83.051561,39.004641 93.598436,37.383664 105.41484,35.67555 201.55073,21.778691 284.40269,14.2016 388.22734,9.8114004 420.07168,8.4648703 513.32156,7.9968472 550.33672,8.9977699 677.85698,12.446031 795.37832,23.740466 917.91484,44.324011 c 17.83204,2.995404 34.70704,5.900142 37.50001,6.454973 7.25984,1.442181 12.48906,0.760867 -75.78126,9.873462 -96.78841,9.991961 -182.94095,16.653267 -257.42187,19.903836 -28.88456,1.260607 -100.30674,2.82125 -116.79688,2.552124 -5.37109,-0.08766 -15.74218,-0.23995 -23.04687,-0.338425 z"
       id="path4623"
       inkscape:connector-curvature="0"
       transform="matrix(0.26458333,0,0,0.26458333,0,267.89581)" />
    <path
       style="fill:#00acc6;fill-opacity:0;fill-rule:nonzero;stroke-width:0.78125"
       d="M 482.36797,82.769981 C 363.07974,81.161845 237.0413,68.784347 117.52422,46.94081 81.86163,40.422938 79.486538,39.910923 81.977342,39.277724 83.051561,39.004641 93.598436,37.383664 105.41484,35.67555 201.55073,21.778691 284.40269,14.2016 388.22734,9.8114004 420.07168,8.4648703 513.32156,7.9968472 550.33672,8.9977699 677.85698,12.446031 795.37832,23.740466 917.91484,44.324011 c 17.83204,2.995404 34.70704,5.900142 37.50001,6.454973 7.25984,1.442181 12.48906,0.760867 -75.78126,9.873462 -96.78841,9.991961 -182.94095,16.653267 -257.42187,19.903836 -28.88456,1.260607 -100.30674,2.82125 -116.79688,2.552124 -5.37109,-0.08766 -15.74218,-0.23995 -23.04687,-0.338425 z"
       id="path4625"
       inkscape:connector-curvature="0"
       transform="matrix(0.26458333,0,0,0.26458333,0,267.89581)" />
    <path
       style="fill:#00acc6;fill-opacity:0;fill-rule:nonzero;stroke-width:0.78125"
       d="M 482.36797,82.769981 C 363.07974,81.161845 237.0413,68.784347 117.52422,46.94081 81.86163,40.422938 79.486538,39.910923 81.977342,39.277724 83.051561,39.004641 93.598436,37.383664 105.41484,35.67555 201.55073,21.778691 284.40269,14.2016 388.22734,9.8114004 420.07168,8.4648703 513.32156,7.9968472 550.33672,8.9977699 677.85698,12.446031 795.37832,23.740466 917.91484,44.324011 c 17.83204,2.995404 34.70704,5.900142 37.50001,6.454973 7.25984,1.442181 12.48906,0.760867 -75.78126,9.873462 -96.78841,9.991961 -182.94095,16.653267 -257.42187,19.903836 -28.88456,1.260607 -100.30674,2.82125 -116.79688,2.552124 -5.37109,-0.08766 -15.74218,-0.23995 -23.04687,-0.338425 z"
       id="path4627"
       inkscape:connector-curvature="0"
       transform="matrix(0.26458333,0,0,0.26458333,0,267.89581)" />
    <path
       style="fill:#00acc6;fill-opacity:0;fill-rule:nonzero;stroke-width:0.78125"
       d="M 482.36797,82.769981 C 363.07974,81.161845 237.0413,68.784347 117.52422,46.94081 81.86163,40.422938 79.486538,39.910923 81.977342,39.277724 83.051561,39.004641 93.598436,37.383664 105.41484,35.67555 201.55073,21.778691 284.40269,14.2016 388.22734,9.8114004 420.07168,8.4648703 513.32156,7.9968472 550.33672,8.9977699 677.85698,12.446031 795.37832,23.740466 917.91484,44.324011 c 17.83204,2.995404 34.70704,5.900142 37.50001,6.454973 7.25984,1.442181 12.48906,0.760867 -75.78126,9.873462 -96.78841,9.991961 -182.94095,16.653267 -257.42187,19.903836 -28.88456,1.260607 -100.30674,2.82125 -116.79688,2.552124 -5.37109,-0.08766 -15.74218,-0.23995 -23.04687,-0.338425 z"
       id="path4629"
       inkscape:connector-curvature="0"
       transform="matrix(0.26458333,0,0,0.26458333,0,267.89581)" />
    <path
       style="fill:#00acc6;fill-opacity:0;fill-rule:nonzero;stroke-width:0.78125"
       d="M 482.36797,82.769981 C 363.07974,81.161845 237.0413,68.784347 117.52422,46.94081 81.86163,40.422938 79.486538,39.910923 81.977342,39.277724 83.051561,39.004641 93.598436,37.383664 105.41484,35.67555 201.55073,21.778691 284.40269,14.2016 388.22734,9.8114004 420.07168,8.4648703 513.32156,7.9968472 550.33672,8.9977699 677.85698,12.446031 795.37832,23.740466 917.91484,44.324011 c 17.83204,2.995404 34.70704,5.900142 37.50001,6.454973 7.25984,1.442181 12.48906,0.760867 -75.78126,9.873462 -96.78841,9.991961 -182.94095,16.653267 -257.42187,19.903836 -28.88456,1.260607 -100.30674,2.82125 -116.79688,2.552124 -5.37109,-0.08766 -15.74218,-0.23995 -23.04687,-0.338425 z"
       id="path4631"
       inkscape:connector-curvature="0"
       transform="matrix(0.26458333,0,0,0.26458333,0,267.89581)" />
    <path
       style="fill:#00acc6;fill-opacity:0;fill-rule:nonzero;stroke-width:0.78125;filter:url(#filter4767)"
       d="M 482.36797,82.769981 C 363.07974,81.161845 237.0413,68.784347 117.52422,46.94081 81.86163,40.422938 79.486538,39.910923 81.977342,39.277724 83.051561,39.004641 93.598436,37.383664 105.41484,35.67555 201.55073,21.778691 284.40269,14.2016 388.22734,9.8114004 420.07168,8.4648703 513.32156,7.9968472 550.33672,8.9977699 677.85698,12.446031 795.37832,23.740466 917.91484,44.324011 c 17.83204,2.995404 34.70704,5.900142 37.50001,6.454973 7.25984,1.442181 12.48906,0.760867 -75.78126,9.873462 -96.78841,9.991961 -182.94095,16.653267 -257.42187,19.903836 -28.88456,1.260607 -100.30674,2.82125 -116.79688,2.552124 -5.37109,-0.08766 -15.74218,-0.23995 -23.04687,-0.338425 z"
       id="path4633"
       inkscape:connector-curvature="0"
       transform="matrix(0.26458333,0,0,0.26458333,0,267.89581)" />
    <path
       style="fill:#00acc6;fill-opacity:1;fill-rule:nonzero;stroke-width:0.20670572"
       d="m 127.36814,290.46716 c -31.561676,-0.42549 -64.909346,-3.70037 -96.531573,-9.4798 -9.435727,-1.72452 -10.064136,-1.85999 -9.405111,-2.02753 0.28422,-0.0722 3.074748,-0.50113 6.201171,-0.95307 25.435954,-3.67688 47.357201,-5.68165 74.827473,-6.84323 8.42548,-0.35626 33.09785,-0.4801 42.89144,-0.21527 33.73974,0.91235 64.83393,3.90067 97.25505,9.34674 4.71806,0.79253 9.1829,1.56108 9.92187,1.70787 1.92084,0.38158 3.3044,0.20132 -20.05045,2.61236 -25.6086,2.6437 -48.40313,4.40617 -68.10954,5.26622 -7.64237,0.33354 -26.53949,0.74646 -30.90251,0.67525 -1.4211,-0.0232 -4.16512,-0.0635 -6.09782,-0.0895 z"
       id="path4771"
       inkscape:connector-curvature="0" />
    <path
       style="fill:#00acc6;fill-opacity:1;fill-rule:nonzero;stroke-width:0.07257544"
       d="m 503.3622,295.48196 c -4.563,-1.51626 -5.65922,-1.86706 -9.52544,-3.04835 -14.9249,-4.56013 -30.98855,-8.46746 -46.53244,-11.31856 -1.20437,-0.22091 -2.23903,-0.41566 -2.29925,-0.43277 -0.0603,-0.0171 0.25181,-0.0166 0.69342,9.8e-4 4.05662,0.16367 5.88637,0.19396 9.41599,0.15587 4.69522,-0.0507 7.74782,-0.19484 11.8247,-0.55845 14.04693,-1.25282 27.25652,-4.29966 40.79591,-9.40975 l 0.50427,-0.19032 -0.0477,1.78968 c -0.0261,0.98431 -0.0479,6.91223 -0.0482,13.17311 0,9.06304 -0.019,11.38168 -0.0916,11.37487 -0.0502,-0.005 -2.16057,-0.69617 -4.68975,-1.53661 z"
       id="path4778"
       inkscape:connector-curvature="0" />
    <path
       style="fill:#ffffff;fill-opacity:1;fill-rule:nonzero;stroke-width:0.5844627"
       d="M 217.78482,296.81979 -0.20097097,296.6724 v -11.08264 c 0,-6.09545 0.1246238,-11.08265 0.27694173,-11.08265 0.15231799,0 4.41357844,0.92309 9.46946784,2.05131 57.9321094,12.92756 116.8153214,16.53385 184.9621914,11.32798 18.30649,-1.39848 29.84307,-2.50618 69.39239,-6.66281 29.84985,-3.13721 47.45006,-4.79803 66.17164,-6.2442 13.1858,-1.01855 63.03745,-1.01925 74.36989,-0.001 34.22757,3.07533 66.04859,9.44942 95.59752,19.14922 4.42854,1.45371 8.05186,2.7526 8.05186,2.88641 0,0.13382 -16.27206,0.17803 -36.16016,0.0982 -19.88809,-0.0798 -134.25377,-0.21138 -254.14595,-0.29244 z"
       id="path4782"
       inkscape:connector-curvature="0" />
  </g>
</svg>
